<?xml version="1.0" encoding="UTF-8"?>
<svg version="1.1" xmlns="http://www.w3.org/2000/svg" width="32" height="32">
<path d="M0 0 C1.051875 -0.00515625 2.10375 -0.0103125 3.1875 -0.015625 C4.280625 -0.00015625 5.37375 0.0153125 6.5 0.03125 C8.1396875 0.00804688 8.1396875 0.00804688 9.8125 -0.015625 C10.864375 -0.01046875 11.91625 -0.0053125 13 0 C14.43859375 0.00676758 14.43859375 0.00676758 15.90625 0.01367188 C19.3011717 0.69112237 20.46832431 1.75266926 22.5 4.53125 C23.01757812 7.125 23.01757812 7.125 23.03125 10.03125 C23.03898437 11.6090625 23.03898437 11.6090625 23.046875 13.21875 C23.03140625 14.311875 23.0159375 15.405 23 16.53125 C23.01546875 17.624375 23.0309375 18.7175 23.046875 19.84375 C23.04171875 20.895625 23.0365625 21.9475 23.03125 23.03125 C23.02673828 23.9903125 23.02222656 24.949375 23.01757812 25.9375 C22.34012763 29.3324217 21.27858074 30.49957431 18.5 32.53125 C15.90625 33.04882812 15.90625 33.04882812 13 33.0625 C11.948125 33.06765625 10.89625 33.0728125 9.8125 33.078125 C8.719375 33.06265625 7.62625 33.0471875 6.5 33.03125 C5.406875 33.04671875 4.31375 33.0621875 3.1875 33.078125 C2.135625 33.07296875 1.08375 33.0678125 0 33.0625 C-0.9590625 33.05798828 -1.918125 33.05347656 -2.90625 33.04882812 C-6.3011717 32.37137763 -7.46832431 31.30983074 -9.5 28.53125 C-10.01757812 25.9375 -10.01757812 25.9375 -10.03125 23.03125 C-10.03640625 21.979375 -10.0415625 20.9275 -10.046875 19.84375 C-10.03140625 18.750625 -10.0159375 17.6575 -10 16.53125 C-10.01546875 15.438125 -10.0309375 14.345 -10.046875 13.21875 C-10.03914062 11.6409375 -10.03914062 11.6409375 -10.03125 10.03125 C-10.02673828 9.0721875 -10.02222656 8.113125 -10.01757812 7.125 C-8.88515929 1.45008601 -5.39576194 0.02538329 0 0 Z M0.5 6.53125 C0.5 6.86125 0.5 7.19125 0.5 7.53125 C4.46 7.53125 8.42 7.53125 12.5 7.53125 C12.5 7.20125 12.5 6.87125 12.5 6.53125 C8.54 6.53125 4.58 6.53125 0.5 6.53125 Z M-3.5 10.53125 C-3.5 14.49125 -3.5 18.45125 -3.5 22.53125 C-3.17 22.53125 -2.84 22.53125 -2.5 22.53125 C-2.5 18.57125 -2.5 14.61125 -2.5 10.53125 C-2.83 10.53125 -3.16 10.53125 -3.5 10.53125 Z M15.5 10.53125 C15.5 14.49125 15.5 18.45125 15.5 22.53125 C15.83 22.53125 16.16 22.53125 16.5 22.53125 C16.5 18.57125 16.5 14.61125 16.5 10.53125 C16.17 10.53125 15.84 10.53125 15.5 10.53125 Z M4.5 12.53125 C3.84 13.19125 3.18 13.85125 2.5 14.53125 C2.82041397 17.13405568 2.82041397 17.13405568 3.5 19.53125 C5.89719432 20.21083603 5.89719432 20.21083603 8.5 20.53125 C9.16 19.87125 9.82 19.21125 10.5 18.53125 C10.17958603 15.92844432 10.17958603 15.92844432 9.5 13.53125 C7.10280568 12.85166397 7.10280568 12.85166397 4.5 12.53125 Z M0.5 25.53125 C0.5 25.86125 0.5 26.19125 0.5 26.53125 C4.46 26.53125 8.42 26.53125 12.5 26.53125 C12.5 26.20125 12.5 25.87125 12.5 25.53125 C8.54 25.53125 4.58 25.53125 0.5 25.53125 Z " fill="#000000" transform="translate(9.5,-0.53125)"/>
<path d="M0 0 C1.65 0.33 3.3 0.66 5 1 C4.67 2.65 4.34 4.3 4 6 C2.35 5.67 0.7 5.34 -1 5 C-0.67 3.35 -0.34 1.7 0 0 Z " fill="#000000" transform="translate(14,13)"/>
</svg>
